<svg width="210" height="49" viewBox="0 0 210 49" fill="none" xmlns="http://www.w3.org/2000/svg">
<path d="M30 6.20001H38C39.0609 6.20001 40.0783 6.62144 40.8284 7.37158C41.5786 8.12173 42 9.13915 42 10.2V38.2C42 39.2609 41.5786 40.2783 40.8284 41.0284C40.0783 41.7786 39.0609 42.2 38 42.2H30M20 34.2L30 24.2M30 24.2L20 14.2M30 24.2H6" stroke="#F5F5F5" stroke-width="4" stroke-linecap="round" stroke-linejoin="round"/>
<path d="M59.75 32.4531H70.4062V36H55.3438V13.25H59.75V32.4531ZM73.8281 27.3906C73.8281 26.1615 74.0052 25.026 74.3594 23.9844C74.7135 22.9323 75.2344 22.0208 75.9219 21.25C76.599 20.4792 77.4271 19.875 78.4062 19.4375C79.3958 19 80.526 18.7812 81.7969 18.7812C83.0677 18.7812 84.1979 19 85.1875 19.4375C86.1771 19.875 87.0156 20.4792 87.7031 21.25C88.3802 22.0208 88.8958 22.9323 89.25 23.9844C89.6042 25.026 89.7812 26.1615 89.7812 27.3906V27.7188C89.7812 28.9583 89.6042 30.1042 89.25 31.1562C88.8958 32.1979 88.3802 33.1042 87.7031 33.875C87.026 34.6458 86.1927 35.25 85.2031 35.6875C84.2135 36.1146 83.0885 36.3281 81.8281 36.3281C80.5573 36.3281 79.4219 36.1146 78.4219 35.6875C77.4323 35.25 76.599 34.6458 75.9219 33.875C75.2344 33.1042 74.7135 32.1979 74.3594 31.1562C74.0052 30.1042 73.8281 28.9583 73.8281 27.7188V27.3906ZM78.1719 27.7188C78.1719 28.4271 78.2396 29.0938 78.375 29.7188C78.5104 30.3333 78.724 30.8698 79.0156 31.3281C79.3073 31.7969 79.6823 32.1667 80.1406 32.4375C80.6094 32.7083 81.1719 32.8438 81.8281 32.8438C82.4635 32.8438 83.0104 32.7083 83.4688 32.4375C83.9271 32.1667 84.3021 31.7969 84.5938 31.3281C84.875 30.8698 85.0833 30.3333 85.2188 29.7188C85.3542 29.0938 85.4219 28.4271 85.4219 27.7188V27.3906C85.4219 26.7031 85.3542 26.0521 85.2188 25.4375C85.0833 24.8229 84.875 24.2812 84.5938 23.8125C84.3021 23.3438 83.9271 22.974 83.4688 22.7031C83.0104 22.4323 82.4531 22.2969 81.7969 22.2969C81.151 22.2969 80.599 22.4323 80.1406 22.7031C79.6823 22.974 79.3073 23.3438 79.0156 23.8125C78.724 24.2812 78.5104 24.8229 78.375 25.4375C78.2396 26.0521 78.1719 26.7031 78.1719 27.3906V27.7188ZM93.2031 27.4219C93.2031 26.1406 93.3594 24.9688 93.6719 23.9062C93.9948 22.8438 94.4531 21.9323 95.0469 21.1719C95.6406 20.4115 96.3594 19.8229 97.2031 19.4062C98.0469 18.9896 99 18.7812 100.062 18.7812C100.635 18.7812 101.156 18.8385 101.625 18.9531C102.104 19.0573 102.536 19.2188 102.922 19.4375C103.214 19.5938 103.484 19.7812 103.734 20C103.984 20.2083 104.214 20.4427 104.422 20.7031L104.594 19.0938H108.547V35.4531C108.547 36.599 108.349 37.6198 107.953 38.5156C107.568 39.4115 107.026 40.1667 106.328 40.7812C105.62 41.3958 104.771 41.8594 103.781 42.1719C102.802 42.4948 101.719 42.6562 100.531 42.6562C100.021 42.6562 99.474 42.6042 98.8906 42.5C98.3073 42.3958 97.7292 42.2344 97.1562 42.0156C96.5833 41.7969 96.0417 41.5156 95.5312 41.1719C95.0208 40.8385 94.5833 40.4375 94.2188 39.9688L96.1719 37.3281C96.4531 37.651 96.7552 37.9323 97.0781 38.1719C97.401 38.4219 97.7396 38.625 98.0938 38.7812C98.4375 38.9375 98.7917 39.0521 99.1562 39.125C99.5312 39.2083 99.9167 39.25 100.312 39.25C100.948 39.25 101.51 39.1615 102 38.9844C102.5 38.8073 102.917 38.5469 103.25 38.2031C103.552 37.8906 103.781 37.5052 103.938 37.0469C104.104 36.5885 104.188 36.0729 104.188 35.5V34.5312C103.979 34.7604 103.76 34.9688 103.531 35.1562C103.302 35.3438 103.057 35.5104 102.797 35.6562C102.411 35.8646 101.984 36.026 101.516 36.1406C101.057 36.2552 100.562 36.3125 100.031 36.3125C98.9792 36.3125 98.0312 36.099 97.1875 35.6719C96.3542 35.2344 95.6406 34.6354 95.0469 33.875C94.4531 33.1146 93.9948 32.2135 93.6719 31.1719C93.3594 30.1198 93.2031 28.9792 93.2031 27.75V27.4219ZM97.5625 27.75C97.5625 28.4583 97.6302 29.1198 97.7656 29.7344C97.9115 30.3385 98.1302 30.8646 98.4219 31.3125C98.7135 31.7708 99.0833 32.1302 99.5312 32.3906C99.9792 32.651 100.51 32.7812 101.125 32.7812C101.5 32.7812 101.839 32.7448 102.141 32.6719C102.453 32.599 102.734 32.4948 102.984 32.3594C103.245 32.2135 103.474 32.0365 103.672 31.8281C103.87 31.6198 104.042 31.3854 104.188 31.125V23.9688C104.031 23.6771 103.844 23.4219 103.625 23.2031C103.406 22.9844 103.156 22.8073 102.875 22.6719C102.635 22.5573 102.37 22.4688 102.078 22.4062C101.797 22.3438 101.49 22.3125 101.156 22.3125C100.542 22.3125 100.01 22.4479 99.5625 22.7188C99.1146 22.9792 98.7448 23.3385 98.4531 23.7969C98.151 24.2656 97.9271 24.8125 97.7812 25.4375C97.6354 26.0521 97.5625 26.7135 97.5625 27.4219V27.75ZM132.891 13.25H146.047V16.7969H141.609V32.4688H146.047V36H132.891V32.4688H137.219V16.7969H132.891V13.25ZM151.297 36V19.0938H155.234L155.5 21.4375C155.719 21.125 155.958 20.8385 156.219 20.5781C156.479 20.3177 156.755 20.0833 157.047 19.875C157.547 19.5208 158.094 19.25 158.688 19.0625C159.281 18.875 159.911 18.7812 160.578 18.7812C161.432 18.7812 162.214 18.9062 162.922 19.1562C163.63 19.4062 164.245 19.8021 164.766 20.3438C165.276 20.8958 165.672 21.6042 165.953 22.4688C166.245 23.3229 166.391 24.3646 166.391 25.5938V36H162.047V25.6562C162.047 24.9896 161.969 24.4427 161.812 24.0156C161.667 23.5781 161.453 23.2344 161.172 22.9844C160.891 22.7344 160.552 22.5625 160.156 22.4688C159.76 22.3646 159.312 22.3125 158.812 22.3125C158.396 22.3125 158.01 22.3594 157.656 22.4531C157.312 22.5469 157.005 22.6875 156.734 22.875C156.516 23.0104 156.318 23.1719 156.141 23.3594C155.964 23.5469 155.802 23.7552 155.656 23.9844V36H151.297Z" fill="white"/>
</svg>
