<svg width="48" height="49" viewBox="0 0 48 49" fill="none" xmlns="http://www.w3.org/2000/svg">
<path d="M27.46 42.2C27.1084 42.8062 26.6037 43.3093 25.9965 43.6591C25.3892 44.0088 24.7008 44.1929 24 44.1929C23.2992 44.1929 22.6108 44.0088 22.0035 43.6591C21.3963 43.3093 20.8916 42.8062 20.54 42.2M36 16.2C36 13.0174 34.7357 9.96517 32.4853 7.71473C30.2348 5.46429 27.1826 4.20001 24 4.20001C20.8174 4.20001 17.7652 5.46429 15.5147 7.71473C13.2643 9.96517 12 13.0174 12 16.2C12 30.2 6 34.2 6 34.2H42C42 34.2 36 30.2 36 16.2Z" stroke="#F5F5F5" stroke-width="4" stroke-linecap="round" stroke-linejoin="round"/>
</svg>
